<?xml version="1.0" standalone="no"?>
<!DOCTYPE svg PUBLIC "-//W3C//DTD SVG 20010904//EN"
 "http://www.w3.org/TR/2001/REC-SVG-20010904/DTD/svg10.dtd">
<svg version="1.0" xmlns="http://www.w3.org/2000/svg"
 width="200.000000pt" height="200.000000pt" viewBox="0 0 200.000000 200.000000"
 preserveAspectRatio="xMidYMid meet">
<metadata>
Created by potrace 1.14, written by Peter Selinger 2001-2017
</metadata>
<g transform="translate(0.000000,200.000000) scale(0.100000,-0.100000)"
fill="#000000" stroke="none">
<path d="M1063 1472 c-13 -8 -12 -7 -38 -165 -10 -59 -20 -105 -23 -103 -2 3
-5 47 -6 99 -2 52 -6 99 -10 105 -11 18 -44 14 -55 -6 -10 -18 -19 -218 -10
-226 2 -2 29 -7 59 -11 30 -4 70 -9 89 -11 44 -5 55 -13 42 -28 -6 -7 -29 -12
-51 -11 -66 3 -64 -6 23 -79 31 -27 57 -52 57 -57 0 -12 -37 -11 -45 1 -3 5
-20 19 -38 32 -28 20 -26 16 16 -33 44 -52 57 -79 40 -79 -4 0 -29 21 -57 48
-49 47 -52 43 -9 -14 13 -17 23 -36 23 -42 0 -20 -27 -13 -43 11 -26 38 -57
71 -57 58 0 -6 7 -22 16 -35 11 -17 12 -26 4 -31 -6 -4 -12 -5 -14 -4 -1 2
-22 33 -46 69 -23 36 -70 102 -104 148 -51 70 -65 82 -86 80 -16 -2 -26 -10
-28 -24 -4 -28 148 -284 192 -322 73 -64 210 -52 255 22 11 17 35 86 55 154
20 67 45 146 56 175 24 63 25 83 4 91 -23 9 -31 1 -65 -66 -17 -33 -32 -58
-35 -55 -3 2 8 54 24 115 29 114 28 142 -7 142 -27 0 -36 -16 -61 -105 -28
-100 -43 -128 -35 -62 4 27 8 57 10 66 24 125 8 185 -42 153z"/>
<path d="M1210 725 c0 -6 3 -15 8 -19 4 -4 7 -35 7 -69 l0 -61 35 -7 c43 -9
70 11 70 53 0 33 -33 70 -55 62 -14 -6 -19 5 -16 32 1 7 -10 14 -24 16 -15 3
-25 1 -25 -7z m83 -79 c9 -23 1 -51 -15 -54 -16 -3 -28 32 -20 56 5 16 29 15
35 -2z"/>
<path d="M383 717 c-3 -5 -1 -12 5 -16 20 -12 10 -47 -14 -46 -12 0 -26 4 -30
8 -12 11 -14 37 -3 37 5 0 9 5 9 10 0 6 -13 10 -30 10 -16 0 -30 -4 -30 -10 0
-5 3 -10 8 -10 8 0 6 -85 -3 -116 -6 -18 -3 -20 24 -16 31 4 40 15 21 27 -18
11 2 35 31 35 29 0 35 -17 16 -47 -8 -13 1 -20 21 -17 6 1 20 2 29 3 13 1 14
4 5 13 -15 15 -16 110 -1 125 7 7 2 12 -21 15 -17 3 -34 0 -37 -5z"/>
<path d="M877 722 c-15 -3 -16 -7 -6 -18 8 -9 10 -36 7 -77 -5 -62 -5 -63 20
-61 24 1 46 24 23 24 -6 0 -11 6 -11 14 0 8 15 17 35 20 47 9 67 46 41 75 -17
18 -72 30 -109 23z m73 -32 c25 -14 15 -40 -16 -40 -17 0 -24 6 -24 18 0 31
11 37 40 22z"/>
<path d="M1341 714 c14 -17 19 -116 5 -125 -16 -12 3 -26 29 -21 25 4 33 16
17 26 -4 3 -7 34 -7 70 l1 66 -29 0 c-26 0 -28 -2 -16 -16z"/>
<path d="M488 676 c-29 -14 -38 -76 -13 -96 18 -15 62 -17 76 -3 27 27 13 97
-21 106 -10 3 -29 -1 -42 -7z m39 -27 c16 -16 4 -61 -16 -57 -17 3 -26 31 -17
54 6 17 18 18 33 3z"/>
<path d="M598 668 c-28 -28 -21 -79 14 -96 36 -17 64 -2 73 37 13 58 -47 99
-87 59z m55 -29 c7 -27 -1 -49 -18 -49 -20 0 -28 18 -21 46 8 30 32 32 39 3z"/>
<path d="M734 679 c-32 -11 -37 -36 -11 -54 12 -8 27 -15 34 -15 7 0 13 -4 13
-10 0 -5 -9 -10 -20 -10 -11 0 -20 5 -20 10 0 6 -4 10 -10 10 -18 0 -11 -40 8
-41 30 -2 57 2 65 11 15 14 -3 48 -28 54 -14 4 -25 11 -25 16 0 14 27 12 33
-2 4 -10 8 -10 16 2 5 8 8 17 5 21 -7 12 -39 16 -60 8z"/>
<path d="M1028 682 c-19 -4 -24 -17 -9 -26 9 -6 7 -40 -4 -68 -5 -12 -2 -18 6
-19 8 0 22 -2 32 -4 9 -2 17 3 17 11 0 8 -4 14 -8 14 -16 0 -6 52 11 61 23 14
22 33 -3 26 -10 -3 -20 -2 -22 2 -2 4 -11 5 -20 3z"/>
<path d="M1115 666 c-16 -16 -23 -32 -20 -47 6 -30 33 -58 53 -54 9 2 22 4 29
4 19 2 33 56 20 81 -19 37 -54 44 -82 16z m50 -42 c0 -19 -5 -29 -15 -29 -16
0 -25 28 -16 51 10 25 31 10 31 -22z"/>
<path d="M1450 683 c-22 -8 -40 -34 -40 -58 0 -45 44 -73 83 -53 24 12 13 26
-16 21 -15 -3 -26 1 -30 9 -4 11 3 14 26 14 27 -1 32 3 32 23 0 26 -32 52 -55
44z m24 -32 c3 -5 -1 -11 -9 -15 -15 -6 -29 7 -18 18 9 9 21 8 27 -3z"/>
<path d="M1524 678 c-4 -7 -2 -14 4 -16 16 -5 15 -69 0 -75 -18 -7 9 -26 31
-22 12 1 15 11 13 42 -3 37 10 64 25 49 9 -9 11 -66 2 -66 -20 0 -7 -18 16
-22 31 -6 38 3 27 34 -11 31 -4 58 15 58 13 0 15 -9 11 -44 -4 -36 -2 -45 12
-49 23 -6 49 10 35 21 -6 4 -12 23 -13 42 -3 40 -27 64 -51 51 -8 -5 -23 -6
-31 -1 -9 5 -22 5 -30 0 -7 -4 -24 -4 -36 0 -16 6 -26 5 -30 -2z"/>
</g>
</svg>
